<svg xmlns="http://www.w3.org/2000/svg" viewBox="0 0 567 139">
  <defs>
    <style>
      .cls-1 {
        fill: #fff;
        fill-rule: evenodd;
      }
    </style>
  </defs>
  <path id="dijs" class="cls-1" d="M53.494-.206V58.87A23.727,23.727,0,0,0,43.85,51.29a30.658,30.658,0,0,0-12.741-2.763,32.657,32.657,0,0,0-15.627,3.683,26.63,26.63,0,0,0-10.841,10.7A33.13,33.13,0,0,0,.7,79.411a35.17,35.17,0,0,0,3.731,16.5,27.431,27.431,0,0,0,10.348,11.121A28.206,28.206,0,0,0,29.56,111a31.633,31.633,0,0,0,13.445-2.834,29.853,29.853,0,0,0,10.348-7.791v9.208H66.587V-0.206H53.494ZM33.643,99.67a18.85,18.85,0,0,1-9.855-2.692,19.935,19.935,0,0,1-7.18-7.367,21.465,21.465,0,0,1,0-20.754,19.577,19.577,0,0,1,7.18-7.225,19.252,19.252,0,0,1,9.855-2.621,20.608,20.608,0,0,1,12.53,4.038,18.5,18.5,0,0,1,7.18,10.413v11.05a18.672,18.672,0,0,1-6.828,11.05A20.331,20.331,0,0,1,33.643,99.67h0ZM89.252,50.936v58.65h13.093V50.936H89.252ZM88.266,29.828A6.73,6.73,0,0,0,90.66,35.07a8.028,8.028,0,0,0,5.491,2.125,7.782,7.782,0,0,0,5.421-2.125,7.075,7.075,0,0,0,0-10.483,7.782,7.782,0,0,0-5.421-2.125,8.028,8.028,0,0,0-5.491,2.125,6.733,6.733,0,0,0-2.393,5.242h0ZM126,137.919a25.983,25.983,0,0,0,10.488-11.05q3.306-6.8,3.309-16.858V50.936H126.559v58.508q0,13.033-8.447,20.259ZM125.573,29.828a6.731,6.731,0,0,0,2.394,5.242,8.026,8.026,0,0,0,5.49,2.125,7.782,7.782,0,0,0,5.421-2.125,7.075,7.075,0,0,0,0-10.483,7.782,7.782,0,0,0-5.421-2.125,8.026,8.026,0,0,0-5.49,2.125,6.734,6.734,0,0,0-2.394,5.242h0Zm52.654,81.033q10.839,0,16.753-5.525a18.36,18.36,0,0,0,5.913-14.025q0-6.514-4.012-10.342a29.71,29.71,0,0,0-11.193-6.233q-5.773-1.839-7.743-2.621a11.633,11.633,0,0,1-3.8-2.55,6.242,6.242,0,0,1,.985-9.633,11.736,11.736,0,0,1,6.758-1.913,19.708,19.708,0,0,1,6.547,1.558,16.033,16.033,0,0,1,5.7,3.825l5.209-8.075a26.759,26.759,0,0,0-8.87-4.958,35.481,35.481,0,0,0-10.981-1.558q-9.714,0-15.135,5.242a16.912,16.912,0,0,0-5.42,12.608q0,12.325,14.923,17.142,5.492,1.7,7.814,2.55a11.29,11.29,0,0,1,4.153,2.692,6.542,6.542,0,0,1,1.83,4.817,6.208,6.208,0,0,1-2.956,5.667,14.175,14.175,0,0,1-7.6,1.841,17.744,17.744,0,0,1-7.673-1.841,27.917,27.917,0,0,1-7.391-5.242l-5.631,7.65a22.812,22.812,0,0,0,9.5,6.658,33.769,33.769,0,0,0,12.319,2.267h0Z"/>
  <path id="talks" class="cls-1" d="M194.426,24.582v4.471h31.581v79.629h4.323V29.053h31.582V24.582H194.426Zm73.97,84.1h4.683L284.487,80.89h41.188l11.288,27.792h4.8l-34.344-84.1h-4.683Zm36.625-78.3L323.874,76.54H286.288Zm113.717,78.3v-4.471H360.5V24.582h-4.443v84.1h62.683Zm8.765-84.1v84.1h4.443v-20.9L456.8,62.765l32.663,45.917h5.283L459.925,59.624l34.944-35.042h-6.244L431.946,81.495V24.582H427.5ZM537.377,68.445q9.486,1.934,14.23,3.444a17.87,17.87,0,0,1,7.866,4.894q3.12,3.384,3.122,9.667a17.013,17.013,0,0,1-7.265,14.5q-7.268,5.318-18.313,5.316a34.339,34.339,0,0,1-15.37-3.2,22.975,22.975,0,0,1-9.907-9,26.129,26.129,0,0,1-3.423-13.533h-4.443A30.224,30.224,0,0,0,507.9,96.176a26.942,26.942,0,0,0,11.588,10.573,39.047,39.047,0,0,0,17.532,3.746,40.808,40.808,0,0,0,14.89-2.659A24.9,24.9,0,0,0,562.9,99.8a21.026,21.026,0,0,0,4.143-13.231q0-7.853-3.783-12.2a21.13,21.13,0,0,0-9.246-6.223A134.884,134.884,0,0,0,538.7,64.215a143.043,143.043,0,0,1-15.13-3.867,21.582,21.582,0,0,1-8.766-5.256,12.661,12.661,0,0,1-3.362-9.244,16,16,0,0,1,3.542-10.633,21.137,21.137,0,0,1,9.186-6.283A35.209,35.209,0,0,1,536.3,26.878a29.743,29.743,0,0,1,13.329,2.96,23.214,23.214,0,0,1,9.486,8.4A22.8,22.8,0,0,1,562.6,50.8h4.443a26.622,26.622,0,0,0-4.083-14.621,27.823,27.823,0,0,0-11.108-9.969,33.623,33.623,0,0,0-15.43-3.565,38.378,38.378,0,0,0-15.431,2.9,23.607,23.607,0,0,0-10.327,8.217A21.189,21.189,0,0,0,507,46.09a16.42,16.42,0,0,0,3.663,11.056,24.52,24.52,0,0,0,10.087,6.767,104.823,104.823,0,0,0,16.631,4.531h0Z"/>
</svg>
